Coordinates
version=1
nRows=10
nColumns=34
inDegrees=yes

Units are S.I. units (second, meters, Newtons, ...)
If the header above contains a line with 'inDegrees', this indicates whether rotational values are in degrees (yes) or radians (no).

endheader
time	pelvis_tilt	pelvis_list	pelvis_rotation	pelvis_tx	pelvis_ty	pelvis_tz	hip_flexion_r	hip_adduction_r	hip_rotation_r	knee_angle_r	ankle_angle_r	subtalar_angle_r	mtp_angle_r	hip_flexion_l	hip_adduction_l	hip_rotation_l	knee_angle_l	ankle_angle_l	subtalar_angle_l	mtp_angle_l	lumbar_extension	lumbar_bending	lumbar_rotation	arm_flex_r	arm_add_r	arm_rot_r	elbow_flex_r	pro_sup_r	arm_flex_l	arm_add_l	arm_rot_l	elbow_flex_l	pro_sup_l
      1.16666670	     -2.55051118	      2.25281479	     -1.75502394	      1.88187482	      0.92327691	     -0.17016239	     -0.73090626	     -7.63702092	      4.20019065	      0.00000000	      1.58696963	    -22.97150521	      0.00000000	     -0.20691855	     -4.42162575	     -4.62173930	      2.84329083	      3.61985425	     -3.41643841	      0.00000000	     -6.46752894	     -0.71741975	     -0.05833108	      9.36980787	     -7.86010172	     37.71422139	     82.78825229	     83.65454976	      6.41435820	     -7.45163092	     29.74355957	     77.15635574	     88.60311111
      1.18333330	     -2.54264497	      2.23785592	     -1.75542433	      1.88160042	      0.92324084	     -0.17107994	     -0.72221596	     -7.64571174	      4.19583326	      0.00000000	      1.58590935	    -22.97565535	      0.00000000	     -0.19940338	     -4.41899488	     -4.61900935	      2.83463992	      3.62576611	     -3.41616881	      0.00000000	     -6.46264779	     -0.72048413	     -0.06191869	      9.37230728	     -7.86246856	     37.70939913	     82.78585550	     83.65233145	      6.41871252	     -7.45764400	     29.74536005	     77.15391825	     88.60261326
      1.20000000	     -2.61169575	      2.26259365	     -1.75761487	      1.88119736	      0.92326508	     -0.17238851	     -0.61447173	     -7.72477402	      4.09455097	      0.00000000	      1.55187116	    -23.04123957	      0.00000000	     -0.15876735	     -4.33435112	     -4.58487340	      2.70674169	      3.72790562	     -3.41703411	      0.00000000	     -6.42791606	     -0.66303373	     -0.17410797	      9.43046990	     -7.98834454	     37.58997818	     82.73486521	     83.61660637	      6.51223544	     -7.52328033	     29.77095400	     77.12514109	     88.59523822
      1.21666670	     -2.59772670	      2.23806825	     -1.75456573	      1.88078873	      0.92373330	     -0.17306317	     -0.60317792	     -7.73851809	      4.09087109	      0.00000000	      1.54840437	    -23.04332964	      0.00000000	     -0.15240778	     -4.32584183	     -4.58232397	      2.70076185	      3.73114505	     -3.41555096	      0.00000000	     -6.42141797	     -0.66565406	     -0.17455756	      9.43243586	     -7.98923331	     37.58513486	     82.73367133	     83.61471658	      6.51079565	     -7.52747463	     29.77324723	     77.12290367	     88.59484363
      1.23333330	     -2.65281420	      2.27465787	     -1.78612850	      1.88053818	      0.92402548	     -0.17316902	     -0.49197244	     -7.84213939	      3.99133980	      0.00000000	      1.45386673	    -23.07170221	      0.00000000	     -0.13103425	     -4.22211613	     -4.51301966	      2.59064373	      3.80304645	     -3.38125424	      0.00000000	     -6.36771927	     -0.59278129	     -0.26417125	      9.52051747	     -8.12147057	     37.42511706	     82.69193928	     83.57562960	      6.54755479	     -7.58396812	     29.80351878	     77.08541994	     88.58693333
      1.25000000	     -2.64890872	      2.25765107	     -1.78181166	      1.88051597	      0.92407297	     -0.17260406	     -0.48801927	     -7.85071339	      3.99114262	      0.00000000	      1.45320498	    -23.07168445	      0.00000000	     -0.13065854	     -4.21608321	     -4.51279980	      2.59014437	      3.80338315	     -3.38100626	      0.00000000	     -6.36679500	     -0.59287873	     -0.26438377	      9.52085296	     -8.12179180	     37.42425658	     82.69187171	     83.57536463	      6.54722850	     -7.58409658	     29.80386188	     77.08513815	     88.58687820
      1.26666670	     -2.63146417	      2.25539675	     -1.77030463	      1.88018663	      0.92398660	     -0.17210461	     -0.46428321	     -7.85749106	      3.98904928	      0.00000000	      1.44554575	    -23.07069374	      0.00000000	     -0.13110110	     -4.22341526	     -4.50787731	      2.58131913	      3.80734575	     -3.37815025	      0.00000000	     -6.35923939	     -0.59475369	     -0.26778135	      9.52719874	     -8.12633603	     37.41282061	     82.69172074	     83.57254868	      6.54625320	     -7.58988223	     29.80562526	     77.08168958	     88.58621875
      1.28333330	     -2.63226333	      2.25620158	     -1.76973563	      1.88010000	      0.92396373	     -0.17221848	     -0.46213755	     -7.85671091	      3.98893461	      0.00000000	      1.44459514	    -23.07046953	      0.00000000	     -0.13273457	     -4.22448272	     -4.50721107	      2.58091184	      3.80783241	     -3.37774359	      0.00000000	     -6.35843327	     -0.59530409	     -0.26826056	      9.52804685	     -8.12682547	     37.41132915	     82.69181065	     83.57221147	      6.54622453	     -7.59108354	     29.80569027	     77.08119481	     88.58613127
      1.30000000	     -2.71614232	      2.21524008	     -1.77474896	      1.87981942	      0.92388675	     -0.17260859	     -0.33634808	     -7.80464136	      4.00004472	      0.00000000	      1.29737552	    -23.01360094	      0.00000000	     -0.10709627	     -4.26901968	     -4.39893108	      2.43377456	      3.87782086	     -3.31306018	      0.00000000	     -6.26518610	     -0.63188349	     -0.38053700	      9.64391617	     -8.21922294	     37.18379002	     82.71067936	     83.52368560	      6.56627208	     -7.77377242	     29.80981228	     77.01162969	     88.57331442
      1.31666670	     -2.71903908	      2.21580271	     -1.77300083	      1.87964988	      0.92402751	     -0.17271731	     -0.33491802	     -7.80469371	      4.00027727	      0.00000000	      1.29687094	    -23.01341469	      0.00000000	     -0.11060863	     -4.26880574	     -4.39898215	      2.43560354	      3.87789311	     -3.31287515	      0.00000000	     -6.26408896	     -0.63120983	     -0.38073342	      9.64314565	     -8.21842236	     37.18330216	     82.71082410	     83.52340763	      6.56590418	     -7.77417115	     29.81016150	     77.01147280	     88.57324372
